<svg width="91" height="53" viewBox="0 0 91 53" fill="none" xmlns="http://www.w3.org/2000/svg">
<path d="M38.6291 22.05L36.0811 32.046H33.6731L32.3151 26.796C32.2871 26.6933 32.2497 26.5393 32.2031 26.334C32.1657 26.1286 32.1191 25.9046 32.0631 25.662C32.0164 25.4193 31.9744 25.1906 31.9371 24.976C31.8997 24.752 31.8717 24.5793 31.8531 24.458C31.8437 24.5793 31.8157 24.752 31.7691 24.976C31.7317 25.1906 31.6897 25.4193 31.6431 25.662C31.5964 25.8953 31.5497 26.1193 31.5031 26.334C31.4564 26.5393 31.4191 26.698 31.3911 26.81L30.0471 32.046H27.6391L25.0911 22.05H27.1771L28.4511 27.51C28.5071 27.7246 28.5677 27.9953 28.6331 28.322C28.6984 28.6486 28.7591 28.9753 28.8151 29.302C28.8711 29.6286 28.9131 29.904 28.9411 30.128C28.9691 29.8946 29.0111 29.6193 29.0671 29.302C29.1231 28.9753 29.1791 28.6626 29.2351 28.364C29.3004 28.056 29.3564 27.818 29.4031 27.65L30.8591 22.05H32.8611L34.3171 27.65C34.3637 27.8086 34.4151 28.042 34.4711 28.35C34.5364 28.658 34.5971 28.9753 34.6531 29.302C34.7091 29.6286 34.7511 29.904 34.7791 30.128C34.8071 29.8946 34.8491 29.6193 34.9051 29.302C34.9611 28.9753 35.0217 28.6486 35.0871 28.322C35.1617 27.9953 35.2224 27.7246 35.2691 27.51L36.5431 22.05H38.6291Z" fill="#FAA700"/>
<path d="M48.3002 32.046H42.5462V22.05H48.3002V23.786H44.6602V25.984H48.0482V27.72H44.6602V30.296H48.3002V32.046ZM56.1482 22.05C57.4829 22.05 58.4909 22.2366 59.1722 22.61C59.8535 22.9833 60.1942 23.6413 60.1942 24.584C60.1942 25.1533 60.0589 25.634 59.7882 26.026C59.5269 26.418 59.1489 26.656 58.6542 26.74V26.81C58.9902 26.8753 59.2935 26.992 59.5642 27.16C59.8349 27.328 60.0496 27.5706 60.2082 27.888C60.3669 28.2053 60.4462 28.6253 60.4462 29.148C60.4462 30.0533 60.1195 30.7626 59.4662 31.276C58.8129 31.7893 57.9169 32.046 56.7782 32.046H53.0402V22.05H56.1482ZM56.3862 26.012C57.0022 26.012 57.4269 25.914 57.6602 25.718C57.9029 25.522 58.0242 25.2373 58.0242 24.864C58.0242 24.4813 57.8842 24.206 57.6042 24.038C57.3242 23.87 56.8809 23.786 56.2742 23.786H55.1542V26.012H56.3862ZM55.1542 27.692V30.296H56.5402C57.1749 30.296 57.6182 30.1746 57.8702 29.932C58.1222 29.68 58.2482 29.3486 58.2482 28.938C58.2482 28.5646 58.1175 28.266 57.8562 28.042C57.6042 27.8086 57.1422 27.692 56.4702 27.692H55.1542Z" fill="#202124"/>
<path d="M34.3789 45.7159C34.3789 47.4053 33.8982 48.6793 32.9369 49.5379C31.9849 50.3873 30.6455 50.8119 28.9189 50.8119H26.0909V40.8159H29.2269C30.2722 40.8159 31.1775 41.0026 31.9429 41.3759C32.7175 41.7493 33.3149 42.2999 33.7349 43.0279C34.1642 43.7466 34.3789 44.6426 34.3789 45.7159ZM32.1809 45.7719C32.1809 44.6613 31.9382 43.8493 31.4529 43.3359C30.9675 42.8133 30.2629 42.5519 29.3389 42.5519H28.2049V49.0619H29.1149C31.1589 49.0619 32.1809 47.9653 32.1809 45.7719Z" fill="#FAA700"/>
<path d="M44.8681 50.8119H39.1141V40.8159H44.8681V42.5519H41.2281V44.7499H44.6161V46.4859H41.2281V49.0619H44.8681V50.8119ZM55.5021 48.0399C55.5021 48.9266 55.1801 49.6359 54.5361 50.1679C53.9015 50.6906 52.9961 50.9519 51.8201 50.9519C50.7655 50.9519 49.8228 50.7513 48.9921 50.3499V48.3759C49.4681 48.5813 49.9581 48.7726 50.4621 48.9499C50.9755 49.1179 51.4841 49.2019 51.9881 49.2019C52.5108 49.2019 52.8795 49.1039 53.0941 48.9079C53.3181 48.7026 53.4301 48.4459 53.4301 48.1379C53.4301 47.8859 53.3415 47.6713 53.1641 47.4939C52.9961 47.3166 52.7675 47.1533 52.4781 47.0039C52.1888 46.8453 51.8575 46.6773 51.4841 46.4999C51.2508 46.3879 50.9988 46.2573 50.7281 46.1079C50.4575 45.9493 50.1961 45.7579 49.9441 45.5339C49.7015 45.3006 49.5008 45.0206 49.3421 44.6939C49.1835 44.3673 49.1041 43.9753 49.1041 43.5179C49.1041 42.6219 49.4075 41.9266 50.0141 41.4319C50.6208 40.9279 51.4468 40.6759 52.4921 40.6759C53.0148 40.6759 53.5095 40.7366 53.9761 40.8579C54.4521 40.9793 54.9468 41.1519 55.4601 41.3759L54.7741 43.0279C54.3168 42.8413 53.9061 42.6966 53.5421 42.5939C53.1781 42.4913 52.8048 42.4399 52.4221 42.4399C52.0208 42.4399 51.7128 42.5333 51.4981 42.7199C51.2835 42.9066 51.1761 43.1493 51.1761 43.4479C51.1761 43.8026 51.3348 44.0826 51.6521 44.2879C51.9695 44.4933 52.4408 44.7453 53.0661 45.0439C53.5795 45.2866 54.0135 45.5386 54.3681 45.7999C54.7321 46.0613 55.0121 46.3693 55.2081 46.7239C55.4041 47.0786 55.5021 47.5173 55.5021 48.0399ZM63.7171 50.8119H59.1671V49.6079L60.3851 49.0479V42.5799L59.1671 42.0199V40.8159H63.7171V42.0199L62.4991 42.5799V49.0479L63.7171 49.6079V50.8119ZM71.8745 45.1979H75.8365V50.3779C75.3138 50.5553 74.7678 50.6953 74.1985 50.7979C73.6385 50.9006 72.9991 50.9519 72.2805 50.9519C70.7871 50.9519 69.6391 50.5133 68.8365 49.6359C68.0338 48.7586 67.6325 47.4799 67.6325 45.7999C67.6325 44.7546 67.8331 43.8493 68.2345 43.0839C68.6451 42.3186 69.2378 41.7259 70.0125 41.3059C70.7871 40.8859 71.7345 40.6759 72.8545 40.6759C73.3865 40.6759 73.9091 40.7319 74.4225 40.8439C74.9358 40.9559 75.4025 41.1053 75.8225 41.2919L75.1225 42.9859C74.8145 42.8273 74.4645 42.6966 74.0725 42.5939C73.6805 42.4913 73.2698 42.4399 72.8405 42.4399C72.2245 42.4399 71.6878 42.5799 71.2305 42.8599C70.7825 43.1399 70.4325 43.5366 70.1805 44.0499C69.9378 44.5539 69.8165 45.1513 69.8165 45.8419C69.8165 46.4953 69.9051 47.0739 70.0825 47.5779C70.2598 48.0819 70.5398 48.4786 70.9225 48.7679C71.3051 49.0479 71.8045 49.1879 72.4205 49.1879C72.7191 49.1879 72.9711 49.1739 73.1765 49.1459C73.3911 49.1179 73.5871 49.0853 73.7645 49.0479V46.9619H71.8745V45.1979ZM89.7333 50.8119H87.0453L82.6913 43.2519H82.6353C82.654 43.7279 82.6727 44.2039 82.6913 44.6799C82.7193 45.1559 82.7427 45.6319 82.7613 46.1079V50.8119H80.8713V40.8159H83.5453L87.8853 48.3059H87.9273C87.918 47.8393 87.904 47.3773 87.8853 46.9199C87.8667 46.4626 87.848 46.0053 87.8293 45.5479V40.8159H89.7333V50.8119Z" fill="#202124"/>
<path d="M9.64368 13.28L8.91568 10.9H5.27568L4.54768 13.28H2.26568L5.79368 3.242H8.38368L11.9257 13.28H9.64368ZM7.68368 6.798C7.63701 6.63933 7.57635 6.43867 7.50168 6.196C7.42701 5.95333 7.35235 5.706 7.27768 5.454C7.20301 5.202 7.14235 4.98267 7.09568 4.796C7.04901 4.98267 6.98368 5.216 6.89968 5.496C6.82501 5.76667 6.75035 6.028 6.67568 6.28C6.61035 6.52267 6.55901 6.69533 6.52168 6.798L5.80768 9.122H8.41168L7.68368 6.798ZM15.2917 13.28V3.284H17.4057V11.53H21.4657V13.28H15.2917ZM45.886 8.268C45.886 9.304 45.7133 10.2093 45.368 10.984C45.032 11.7493 44.514 12.3467 43.814 12.776C43.114 13.2053 42.218 13.42 41.126 13.42C40.0433 13.42 39.1473 13.2053 38.438 12.776C37.738 12.3467 37.2153 11.7447 36.87 10.97C36.534 10.1953 36.366 9.29 36.366 8.254C36.366 7.218 36.534 6.31733 36.87 5.552C37.2153 4.78667 37.738 4.194 38.438 3.774C39.1473 3.34467 40.048 3.13 41.14 3.13C42.2226 3.13 43.114 3.34467 43.814 3.774C44.514 4.194 45.032 4.79133 45.368 5.566C45.7133 6.33133 45.886 7.232 45.886 8.268ZM38.592 8.268C38.592 9.31333 38.7926 10.1393 39.194 10.746C39.5953 11.3433 40.2393 11.642 41.126 11.642C42.0313 11.642 42.68 11.3433 43.072 10.746C43.464 10.1393 43.66 9.31333 43.66 8.268C43.66 7.21333 43.464 6.38733 43.072 5.79C42.68 5.19266 42.036 4.894 41.14 4.894C40.244 4.894 39.5953 5.19266 39.194 5.79C38.7926 6.38733 38.592 7.21333 38.592 8.268ZM58.0925 13.28H55.6845L53.0665 9.066L52.1705 9.71V13.28H50.0565V3.284H52.1705V7.862C52.3105 7.666 52.4505 7.47 52.5905 7.274C52.7305 7.078 52.8705 6.882 53.0105 6.686L55.7125 3.284H58.0645L54.5785 7.708L58.0925 13.28ZM67.5714 13.28L66.8434 10.9H63.2034L62.4754 13.28H60.1934L63.7214 3.242H66.3114L69.8534 13.28H67.5714ZM65.6114 6.798C65.5647 6.63933 65.5041 6.43867 65.4294 6.196C65.3547 5.95333 65.2801 5.706 65.2054 5.454C65.1307 5.202 65.0701 4.98267 65.0234 4.796C64.9767 4.98267 64.9114 5.216 64.8274 5.496C64.7527 5.76667 64.6781 6.028 64.6034 6.28C64.5381 6.52267 64.4867 6.69533 64.4494 6.798L63.7354 9.122H66.3394L65.6114 6.798ZM76.1314 3.284C77.4941 3.284 78.4974 3.53133 79.1414 4.026C79.7948 4.52067 80.1214 5.272 80.1214 6.28C80.1214 6.73733 80.0328 7.13866 79.8554 7.484C79.6874 7.82 79.4588 8.10933 79.1694 8.352C78.8894 8.58533 78.5861 8.77667 78.2594 8.926L81.1994 13.28H78.8474L76.4674 9.444H75.3334V13.28H73.2194V3.284H76.1314ZM75.9774 5.02H75.3334V7.722H76.0194C76.7194 7.722 77.2188 7.60533 77.5174 7.372C77.8254 7.13867 77.9794 6.79333 77.9794 6.336C77.9794 5.86 77.8161 5.524 77.4894 5.328C77.1721 5.12267 76.6681 5.02 75.9774 5.02ZM88.2996 13.28H83.7496V12.076L84.9676 11.516V5.048L83.7496 4.488V3.284H88.2996V4.488L87.0816 5.048V11.516L88.2996 12.076V13.28Z" fill="#202124"/>
<path d="M28.4157 3.284C29.7504 3.284 30.7584 3.47066 31.4397 3.844C32.121 4.21733 32.4617 4.87533 32.4617 5.818C32.4617 6.38733 32.3264 6.868 32.0557 7.26C31.7944 7.652 31.4164 7.89 30.9217 7.974V8.044C31.2577 8.10933 31.561 8.226 31.8317 8.394C32.1024 8.562 32.317 8.80467 32.4757 9.122C32.6344 9.43933 32.7137 9.85933 32.7137 10.382C32.7137 11.2873 32.387 11.9967 31.7337 12.51C31.0804 13.0233 30.1844 13.28 29.0457 13.28H25.3077V3.284H28.4157ZM28.6537 7.246C29.2697 7.246 29.6944 7.148 29.9277 6.952C30.1704 6.756 30.2917 6.47133 30.2917 6.098C30.2917 5.71533 30.1517 5.44 29.8717 5.272C29.5917 5.104 29.1484 5.02 28.5417 5.02H27.4217V7.246H28.6537ZM27.4217 8.926V11.53H28.8077C29.4424 11.53 29.8857 11.4087 30.1377 11.166C30.3897 10.914 30.5157 10.5827 30.5157 10.172C30.5157 9.79867 30.385 9.5 30.1237 9.276C29.8717 9.04267 29.4097 8.926 28.7377 8.926H27.4217Z" fill="#FAA700"/>
</svg>
